<mxfile host="app.diagrams.net" modified="2023-03-02T15:49:23.561Z" agent="5.0 (X11; Linux x86_64) AppleWebKit/537.36 (KHTML, like Gecko) Chrome/110.0.0.0 Safari/537.36" etag="tjMZCpXfs_fj6lpXoMYR" version="20.8.23" type="github">
  <diagram name="Page-1" id="3aMt4eqgK3jxcraGz8zH">
    <mxGraphModel dx="1247" dy="218" grid="1" gridSize="10" guides="1" tooltips="1" connect="1" arrows="1" fold="1" page="1" pageScale="1" pageWidth="850" pageHeight="1100" background="none" math="0" shadow="0">
      <root>
        <mxCell id="0" />
        <mxCell id="1" parent="0" />
        <mxCell id="lSjnJ-uVdNnS_DPWnz_8-14" style="edgeStyle=orthogonalEdgeStyle;rounded=0;orthogonalLoop=1;jettySize=auto;html=1;startArrow=none;startFill=0;endArrow=classic;endFill=1;" edge="1" parent="1" source="lSjnJ-uVdNnS_DPWnz_8-12" target="lSjnJ-uVdNnS_DPWnz_8-13">
          <mxGeometry relative="1" as="geometry" />
        </mxCell>
        <mxCell id="lSjnJ-uVdNnS_DPWnz_8-12" value="" style="image;html=1;image=img/lib/clip_art/computers/Server_Rack_128x128.png" vertex="1" parent="1">
          <mxGeometry x="370" y="470" width="80" height="80" as="geometry" />
        </mxCell>
        <mxCell id="lSjnJ-uVdNnS_DPWnz_8-16" style="edgeStyle=orthogonalEdgeStyle;rounded=0;orthogonalLoop=1;jettySize=auto;html=1;entryX=0.875;entryY=0.25;entryDx=0;entryDy=0;entryPerimeter=0;startArrow=none;startFill=0;endArrow=classic;endFill=1;" edge="1" parent="1" source="lSjnJ-uVdNnS_DPWnz_8-13" target="lSjnJ-uVdNnS_DPWnz_8-15">
          <mxGeometry relative="1" as="geometry" />
        </mxCell>
        <mxCell id="lSjnJ-uVdNnS_DPWnz_8-31" style="edgeStyle=orthogonalEdgeStyle;rounded=0;orthogonalLoop=1;jettySize=auto;html=1;entryX=1;entryY=0.5;entryDx=0;entryDy=0;startArrow=none;startFill=0;endArrow=classic;endFill=1;" edge="1" parent="1" source="lSjnJ-uVdNnS_DPWnz_8-13" target="lSjnJ-uVdNnS_DPWnz_8-29">
          <mxGeometry relative="1" as="geometry" />
        </mxCell>
        <mxCell id="lSjnJ-uVdNnS_DPWnz_8-13" value="" style="image;html=1;image=img/lib/clip_art/networking/Switch_128x128.png" vertex="1" parent="1">
          <mxGeometry x="130" y="390" width="80" height="80" as="geometry" />
        </mxCell>
        <mxCell id="lSjnJ-uVdNnS_DPWnz_8-15" value="" style="image;html=1;image=img/lib/clip_art/networking/Switch_128x128.png" vertex="1" parent="1">
          <mxGeometry x="-260" y="410" width="80" height="80" as="geometry" />
        </mxCell>
        <mxCell id="lSjnJ-uVdNnS_DPWnz_8-17" value="" style="image;html=1;image=img/lib/clip_art/networking/Wireless_Router_128x128.png" vertex="1" parent="1">
          <mxGeometry x="245" y="310" width="50" height="40" as="geometry" />
        </mxCell>
        <mxCell id="lSjnJ-uVdNnS_DPWnz_8-18" value="" style="image;html=1;image=img/lib/clip_art/networking/Wireless_Router_128x128.png" vertex="1" parent="1">
          <mxGeometry x="105" y="320" width="50" height="40" as="geometry" />
        </mxCell>
        <mxCell id="lSjnJ-uVdNnS_DPWnz_8-19" value="" style="image;html=1;image=img/lib/clip_art/networking/Wireless_Router_128x128.png" vertex="1" parent="1">
          <mxGeometry x="35" y="270" width="50" height="40" as="geometry" />
        </mxCell>
        <mxCell id="lSjnJ-uVdNnS_DPWnz_8-20" value="" style="image;html=1;image=img/lib/clip_art/networking/Wireless_Router_128x128.png" vertex="1" parent="1">
          <mxGeometry x="85" y="450" width="50" height="40" as="geometry" />
        </mxCell>
        <mxCell id="lSjnJ-uVdNnS_DPWnz_8-21" value="" style="image;html=1;image=img/lib/clip_art/networking/Wireless_Router_128x128.png" vertex="1" parent="1">
          <mxGeometry y="580" width="50" height="40" as="geometry" />
        </mxCell>
        <mxCell id="lSjnJ-uVdNnS_DPWnz_8-22" value="" style="image;html=1;image=img/lib/clip_art/networking/Wireless_Router_128x128.png" vertex="1" parent="1">
          <mxGeometry x="5" y="470" width="50" height="40" as="geometry" />
        </mxCell>
        <mxCell id="lSjnJ-uVdNnS_DPWnz_8-23" value="" style="image;html=1;image=img/lib/clip_art/networking/Wireless_Router_128x128.png" vertex="1" parent="1">
          <mxGeometry x="-65" y="500" width="50" height="40" as="geometry" />
        </mxCell>
        <mxCell id="lSjnJ-uVdNnS_DPWnz_8-24" value="" style="image;html=1;image=img/lib/clip_art/networking/Wireless_Router_128x128.png" vertex="1" parent="1">
          <mxGeometry x="-65" y="600" width="50" height="40" as="geometry" />
        </mxCell>
        <mxCell id="lSjnJ-uVdNnS_DPWnz_8-34" style="edgeStyle=orthogonalEdgeStyle;rounded=0;orthogonalLoop=1;jettySize=auto;html=1;entryX=0.312;entryY=1.038;entryDx=0;entryDy=0;entryPerimeter=0;fontSize=10;startArrow=none;startFill=0;endArrow=classic;endFill=1;" edge="1" parent="1" source="lSjnJ-uVdNnS_DPWnz_8-29" target="lSjnJ-uVdNnS_DPWnz_8-20">
          <mxGeometry relative="1" as="geometry" />
        </mxCell>
        <mxCell id="lSjnJ-uVdNnS_DPWnz_8-35" style="rounded=0;orthogonalLoop=1;jettySize=auto;html=1;fontSize=10;startArrow=none;startFill=0;endArrow=classic;endFill=1;" edge="1" parent="1" source="lSjnJ-uVdNnS_DPWnz_8-29" target="lSjnJ-uVdNnS_DPWnz_8-22">
          <mxGeometry relative="1" as="geometry" />
        </mxCell>
        <mxCell id="lSjnJ-uVdNnS_DPWnz_8-36" style="edgeStyle=none;rounded=0;orthogonalLoop=1;jettySize=auto;html=1;entryX=1.065;entryY=1.014;entryDx=0;entryDy=0;entryPerimeter=0;fontSize=10;startArrow=none;startFill=0;endArrow=classic;endFill=1;" edge="1" parent="1" source="lSjnJ-uVdNnS_DPWnz_8-29" target="lSjnJ-uVdNnS_DPWnz_8-23">
          <mxGeometry relative="1" as="geometry" />
        </mxCell>
        <mxCell id="lSjnJ-uVdNnS_DPWnz_8-37" style="edgeStyle=none;rounded=0;orthogonalLoop=1;jettySize=auto;html=1;fontSize=10;startArrow=none;startFill=0;endArrow=classic;endFill=1;" edge="1" parent="1" source="lSjnJ-uVdNnS_DPWnz_8-29" target="lSjnJ-uVdNnS_DPWnz_8-21">
          <mxGeometry relative="1" as="geometry" />
        </mxCell>
        <mxCell id="lSjnJ-uVdNnS_DPWnz_8-38" style="edgeStyle=none;rounded=0;orthogonalLoop=1;jettySize=auto;html=1;entryX=0.75;entryY=0;entryDx=0;entryDy=0;fontSize=10;startArrow=none;startFill=0;endArrow=classic;endFill=1;" edge="1" parent="1" source="lSjnJ-uVdNnS_DPWnz_8-29" target="lSjnJ-uVdNnS_DPWnz_8-24">
          <mxGeometry relative="1" as="geometry" />
        </mxCell>
        <mxCell id="lSjnJ-uVdNnS_DPWnz_8-29" value="&lt;p style=&quot;line-height: 0%;&quot;&gt;2 FO 4 LAN&lt;/p&gt;" style="image;html=1;image=img/lib/clip_art/networking/Switch_128x128.png" vertex="1" parent="1">
          <mxGeometry x="55" y="540" width="90" height="40" as="geometry" />
        </mxCell>
      </root>
    </mxGraphModel>
  </diagram>
</mxfile>
